<mxfile host="app.diagrams.net" modified="2021-03-18T16:17:44.604Z" agent="5.0 (Windows NT 10.0; Win64; x64) AppleWebKit/537.36 (KHTML, like Gecko) Chrome/89.0.4389.90 Safari/537.36" etag="G15Mbu-oJNw3qS8yQBtK" version="14.4.7" type="github">
  <diagram id="jDnu_dIWOn3BXBdkam_3" name="Page-1">
    <mxGraphModel dx="1038" dy="580" grid="1" gridSize="10" guides="1" tooltips="1" connect="1" arrows="1" fold="1" page="1" pageScale="1" pageWidth="850" pageHeight="1100" math="0" shadow="0">
      <root>
        <mxCell id="0" />
        <mxCell id="1" parent="0" />
        <mxCell id="vv_GYCu_j17Oo6LSQTjZ-3" value="" style="edgeStyle=orthogonalEdgeStyle;rounded=0;orthogonalLoop=1;jettySize=auto;html=1;" parent="1" source="vv_GYCu_j17Oo6LSQTjZ-1" target="vv_GYCu_j17Oo6LSQTjZ-2" edge="1">
          <mxGeometry relative="1" as="geometry" />
        </mxCell>
        <mxCell id="vv_GYCu_j17Oo6LSQTjZ-1" value="Task" style="shape=ext;rounded=1;html=1;whiteSpace=wrap;" parent="1" vertex="1">
          <mxGeometry x="20" y="90" width="120" height="80" as="geometry" />
        </mxCell>
        <mxCell id="lhfCGfuBWuVy0MU0NwTS-2" value="" style="edgeStyle=orthogonalEdgeStyle;rounded=0;orthogonalLoop=1;jettySize=auto;html=1;" parent="1" source="vv_GYCu_j17Oo6LSQTjZ-2" target="lhfCGfuBWuVy0MU0NwTS-1" edge="1">
          <mxGeometry relative="1" as="geometry" />
        </mxCell>
        <mxCell id="vv_GYCu_j17Oo6LSQTjZ-2" value="Test" style="ellipse;whiteSpace=wrap;html=1;rounded=1;" parent="1" vertex="1">
          <mxGeometry x="220" y="90" width="120" height="80" as="geometry" />
        </mxCell>
        <mxCell id="lhfCGfuBWuVy0MU0NwTS-1" value="test" style="shape=cylinder;whiteSpace=wrap;html=1;boundedLbl=1;backgroundOutline=1;rounded=1;" parent="1" vertex="1">
          <mxGeometry x="450" y="90" width="60" height="80" as="geometry" />
        </mxCell>
        <mxCell id="499NOf-9ZyhDNyHiHs11-1" value="tes" style="ellipse;whiteSpace=wrap;html=1;" vertex="1" parent="1">
          <mxGeometry x="610" y="110" width="120" height="80" as="geometry" />
        </mxCell>
      </root>
    </mxGraphModel>
  </diagram>
</mxfile>
